<?xml version="1.0" encoding="UTF-8" standalone="no"?>
<!-- Created with Inkscape (http://www.inkscape.org/) -->

<svg
   xmlns:dc="http://purl.org/dc/elements/1.1/"
   xmlns:cc="http://creativecommons.org/ns#"
   xmlns:rdf="http://www.w3.org/1999/02/22-rdf-syntax-ns#"
   xmlns:svg="http://www.w3.org/2000/svg"
   xmlns="http://www.w3.org/2000/svg"
   xmlns:sodipodi="http://sodipodi.sourceforge.net/DTD/sodipodi-0.dtd"
   xmlns:inkscape="http://www.inkscape.org/namespaces/inkscape"
   version="1.1"
   id="svg1436"
   width="113"
   height="102"
   viewBox="0 0 113 102"
   sodipodi:docname="0xbitcoin.svg"
   inkscape:version="0.92.3 (2405546, 2018-03-11)">
  <metadata
     id="metadata1442">
    <rdf:RDF>
      <cc:Work
         rdf:about="">
        <dc:format>image/svg+xml</dc:format>
        <dc:type
           rdf:resource="http://purl.org/dc/dcmitype/StillImage" />
        <dc:title></dc:title>
      </cc:Work>
    </rdf:RDF>
  </metadata>
  <defs
     id="defs1440" />
  <sodipodi:namedview
     pagecolor="#ffffff"
     bordercolor="#666666"
     borderopacity="1"
     objecttolerance="10"
     gridtolerance="10"
     guidetolerance="10"
     inkscape:pageopacity="0"
     inkscape:pageshadow="2"
     inkscape:window-width="1920"
     inkscape:window-height="1017"
     id="namedview1438"
     showgrid="false"
     inkscape:zoom="4"
     inkscape:cx="77.797113"
     inkscape:cy="36.484835"
     inkscape:window-x="0"
     inkscape:window-y="30"
     inkscape:window-maximized="1"
     inkscape:current-layer="g1446"
     inkscape:snap-grids="true"
     inkscape:snap-bbox="true"
     inkscape:snap-global="false" />
  <g
     id="g1446"
     transform="translate(-0.01223281,0.1529051)">
    <circle
       style="fill:#fad536;fill-opacity:1;stroke-width:1.00999999;paint-order:stroke fill markers"
       id="path4742"
       cx="56.512234"
       cy="51.750488"
       r="43.652546" />
    <path
       style="opacity:1;fill:#f8ca31"
       d="M 46.217558,86.273636 C 30.64361,81.248275 20.160984,65.620767 21.397453,49.271804 23.091567,26.871719 44.861976,11.286681 66.02813,17.439848 c 7.318289,2.127485 11.982587,4.644605 17.474431,10.611973 14.274141,19.369008 10.10595,43.53119 -11.981697,56.400592 -8.869481,3.039066 -16.136351,4.446208 -25.303306,1.821223 z m 26.36949,-31.285003 c 0,-0.391209 -1.104084,-0.50023 -2.45352,-0.242269 -1.349436,0.257961 -5.441548,-0.47083 -7.99041,-1.272546 -6.02341,-1.88837 -5.632825,-1.010743 -4.996574,-5.857692 1.009975,-7.693971 4.612763,-19.224848 6.279161,-18.866126 1.546613,0.332936 1.467919,-0.948473 -0.198177,-3.226995 -1.319215,-1.804134 -1.445213,-1.798165 -4.25,0.201354 -2.598326,1.852333 -9.986087,9.128327 -17.144078,17.703895 -1.764945,2.114478 -2.678605,4.378043 -2.678605,6.800044 0,6.787253 8.183419,26.290736 11.223939,27.090414 5.612845,0.55221 22.928225,-19.605806 22.208264,-22.330079 z"
       id="path1452"
       inkscape:connector-curvature="0"
       sodipodi:nodetypes="cssccccsccssssscc" />
    <path
       style="fill:#f8a428"
       d="M 47.516397,86.696149 C 15.917437,77.737047 12.367337,34.29413 41.016957,19.932061 48.665055,16.098065 58.435824,15.333633 65.514021,17.290054 77.155675,20.507819 85.666227,26.597805 90.546442,40.5 c 2.464305,7.02003 1.849043,17.533536 -0.924534,24.796814 -2.83099,7.413628 -10.86841,15.822 -18.435452,19.286306 -6.68996,3.062765 -17.056373,3.988176 -23.670059,2.113029 z M 61.56156,69.310443 C 73.842772,56.333646 74.009518,55.969212 71.603807,47.362547 67.212795,31.653275 63.872968,24.432203 61.519474,24.432203 c -2.073402,0 -19.076347,17.011643 -21.403663,21.512175 -1.989746,3.847745 -1.132427,8.791853 3.616286,20.854898 C 47.087281,75.322369 49.309441,79 51.104227,79 c 0.707937,0 5.413737,-4.360301 10.457333,-9.689557 z"
       id="path1450"
       inkscape:connector-curvature="0"
       sodipodi:nodetypes="ssssssssssssss" />
    <path
       style="fill:#f7931b"
       d="M 43.383199,85.271612 C 28.892402,79.311376 19.8382,65.230659 21.295622,49.425732 c 0.841858,-9.129486 4.396193,-16.400595 8.146616,-19.79468 1.427216,-1.291613 1.211016,-0.393026 -0.923665,3.839006 -7.401403,14.673374 -3.323615,33.303534 9.577453,43.756451 6.230245,7.334125 29.867677,7.989489 18.991022,9.627817 -6.177858,0.952775 -9.27726,0.237994 -13.703849,-1.582714 z m 9.203849,-5.91773 c 0,-0.410024 3.310949,-3.98213 7.357664,-7.938013 4.046716,-3.955884 8.854477,-9.27679 10.683913,-11.824235 3.316736,-4.618471 3.322463,-4.646677 2.002634,-9.861676 C 70.668858,41.975987 66.511546,29.851701 64.837355,27 l -1.467713,-2.5 2.108703,2.360784 c 1.159787,1.298431 2.108703,2.985931 2.108703,3.75 0,0.764069 0.45,1.389216 1,1.389216 0.55,0 1,0.755551 1,1.679002 0,1.750383 1.719493,7.729282 2.968252,10.320998 0.397508,0.825 1.283562,3.84754 1.96901,6.716756 1.16925,4.894362 1.103628,5.419661 -1.06185,8.5 -5.766562,8.202796 -20.875412,22.777302 -20.875412,20.137126 z"
       id="path1448"
       inkscape:connector-curvature="0"
       sodipodi:nodetypes="ssssccsssssscssssssss" />
  </g>
</svg>
